<svg width="22" height="20" viewBox="0 0 22 20" fill="none" xmlns="http://www.w3.org/2000/svg">
<path d="M11 0C5.19875 0 0.5 4.58819 0.5 10.2529C0.5 14.7899 3.50562 18.6219 7.67937 19.9804C8.20437 20.0701 8.40125 19.7625 8.40125 19.4934C8.40125 19.2499 8.38813 18.4425 8.38813 17.5838C5.75 18.058 5.0675 16.9558 4.8575 16.3791C4.73938 16.0843 4.2275 15.1743 3.78125 14.9308C3.41375 14.7386 2.88875 14.2644 3.76813 14.2516C4.595 14.2388 5.18563 14.9949 5.3825 15.3025C6.3275 16.8533 7.83688 16.4175 8.44063 16.1484C8.5325 15.4819 8.80812 15.0334 9.11 14.777C6.77375 14.5207 4.3325 13.6364 4.3325 9.71466C4.3325 8.59965 4.73938 7.67689 5.40875 6.95918C5.30375 6.70286 4.93625 5.65193 5.51375 4.24215C5.51375 4.24215 6.39313 3.97301 8.40125 5.29308C9.24125 5.06239 10.1338 4.94704 11.0263 4.94704C11.9188 4.94704 12.8113 5.06239 13.6513 5.29308C15.6594 3.9602 16.5387 4.24215 16.5387 4.24215C17.1163 5.65193 16.7488 6.70286 16.6438 6.95918C17.3131 7.67689 17.72 8.58684 17.72 9.71466C17.72 13.6492 15.2656 14.5207 12.9294 14.777C13.31 15.0975 13.6381 15.7126 13.6381 16.6738C13.6381 18.0452 13.625 19.1474 13.625 19.4934C13.625 19.7625 13.8219 20.0829 14.3469 19.9804C16.4314 19.2935 18.2428 17.9854 19.526 16.2403C20.8092 14.4953 21.4996 12.4012 21.5 10.2529C21.5 4.58819 16.8013 0 11 0Z" fill="#ABB2BF"/>
</svg>
